<?xml version="1.0"?>
<svg xmlns="http://www.w3.org/2000/svg" xmlns:xlink="http://www.w3.org/1999/xlink" xmlns:svgjs="http://svgjs.com/svgjs" version="1.1" width="512" height="512" x="0" y="0" viewBox="0 0 64 64" style="enable-background:new 0 0 512 512" xml:space="preserve" class=""><g><g xmlns="http://www.w3.org/2000/svg"><path d="m30 16.972h26l2-3h4l-2 20h-30z" fill="#ec6f36" data-original="#f7d881" style="" class=""/><path d="m24 28.972h3v8h-3z" fill="#534f44" data-original="#534f44" style="" class=""/><path d="m60 37v5.991c0 1.097-.884 1.99-1.981 2l-21.019.009v-2.028h-24v-2h-5v-4z" fill="#9e968d" data-original="#9e968d" style="" class=""/><path d="m8 28.972 7.406-11.109c.371-.556.995-.891 1.664-.891h6.93v20h-22v-6c0-1.105.895-2 2-2z" fill="#3e6bb2" data-original="#f2c351" style="" class=""/><path d="m17 37-15-.028v-6c0-1.105.895-2 2-2h17v4.028c-2.209 0-4 1.791-4 4z" fill="#ec6f36" data-original="#f7d881" style="" class=""/><path d="m2 32.972v-2c0-1.105.895-2 2-2h2v3c0 .552-.448 1-1 1z" fill="#e7e4dd" data-original="#e7e4dd" style="" class=""/><path d="m8 28.972h13v-9h-7z" fill="#c7e2fc" data-original="#c7e2fc" style="" class=""/><path d="m8 42.972h-3c-1.657 0-3-1.343-3-3v-3h6z" fill="#7f786b" data-original="#7f786b" style=""/><g fill="#534f44"><circle cx="16" cy="45" r="5" fill="#534f44" data-original="#534f44" style="" class=""/><circle cx="42" cy="45" r="5" fill="#534f44" data-original="#534f44" style="" class=""/><circle cx="52" cy="45" r="5" fill="#534f44" data-original="#534f44" style="" class=""/></g><g><path d="m16 46.998c-1.103 0-2-.896-2-1.999 0-1.104.897-2 2-2s2 .896 2 2c0 1.103-.897 1.999-2 1.999zm0-2.001v.002z" fill="#cbc3b6" data-original="#cbc3b6" style=""/></g><g><path d="m42 46.998c-1.103 0-2-.896-2-1.999 0-1.104.897-2 2-2s2 .896 2 2c-.001 1.103-.898 1.999-2 1.999z" fill="#cbc3b6" data-original="#cbc3b6" style=""/></g><g><path d="m52 46.998c-1.103 0-2-.896-2-1.999 0-1.104.897-2 2-2s2 .896 2 2c0 1.103-.897 1.999-2 1.999zm0-2.001v.002z" fill="#cbc3b6" data-original="#cbc3b6" style=""/></g><path d="m2 39.972c0 .352.072.684.183.998h5.816v-1.999h-5.999z" fill="#534f44" data-original="#534f44" style="" class=""/><path d="m32 44.972h-6c-1.105 0-2-.895-2-2 0-1.105.895-2 2-2h6c1.105 0 2 .895 2 2 0 1.105-.895 2-2 2z" fill="#3e6bb2" data-original="#f2c351" style="" class=""/><path d="m27 13.972v23h35v-3h-32v-20z" fill="#3e6bb2" data-original="#f2c351" style="" class=""/><g><path d="m32 18.972h2v13h-2z" fill="#3e6bb2" data-original="#f2c351" style="" class=""/></g><g><path d="m36 18.972h2v13h-2z" fill="#3e6bb2" data-original="#f2c351" style="" class=""/></g><g><path d="m40 18.972h2v13h-2z" fill="#3e6bb2" data-original="#f2c351" style="" class=""/></g><g><path d="m44 18.972h2v13h-2z" fill="#3e6bb2" data-original="#f2c351" style="" class=""/></g><g><path d="m48 18.972h2v13h-2z" fill="#3e6bb2" data-original="#f2c351" style="" class=""/></g><g><path d="m52 18.972h2v13h-2z" fill="#3e6bb2" data-original="#f2c351" style="" class=""/></g><g><path d="m56 18.972h2v13h-2z" fill="#3e6bb2" data-original="#f2c351" style="" class=""/></g><path d="m8 28.972h7.629c1.947-1.906 3.159-4.56 3.159-7.5 0-.51-.049-1.008-.119-1.5h-4.669z" fill="#ebf7fe" data-original="#ebf7fe" style="" class=""/><g><path d="m16 42.999c-1.103 0-2 .896-2 2 0 1.103.897 1.999 2 1.999s2-.896 2-1.999-.897-2-2-2z" fill="#000000" data-original="#000000" style="" class=""/><path d="m42 42.999c-1.103 0-2 .896-2 2 0 1.103.897 1.999 2 1.999s2-.896 2-1.999-.897-2-2-2z" fill="#000000" data-original="#000000" style="" class=""/><path d="m52 42.999c-1.103 0-2 .896-2 2 0 1.103.897 1.999 2 1.999s2-.896 2-1.999-.897-2-2-2z" fill="#000000" data-original="#000000" style="" class=""/><path d="m62 32.971h-.896l1.89-18.9c.028-.281-.064-.561-.253-.771s-.459-.329-.742-.329h-4c-.334 0-.646.167-.832.445l-1.703 2.555h-24.464v-2c0-.553-.448-1-1-1h-3c-.266 0-.52.105-.708.292s-.293.443-.292.709v14h-1.001v-11c0-.553-.447-1-1-1h-6.929c-1.005 0-1.938.499-2.496 1.335l-7.11 10.664h-3.464c-1.654 0-3 1.346-3 3v6 3c0 2.205 1.794 3.999 4 3.999h3c.553 0 1-.447 1-1v-1h1.829c-.523.891-.829 1.924-.829 3.029 0 3.308 2.691 5.999 6 5.999 3.308 0 6-2.691 6-5.999 0-.351-.036-.693-.095-1.028h1.279c.414 1.161 1.513 2 2.815 2h6c1.302 0 2.402-.839 2.816-2h1.279c-.058.335-.094.677-.094 1.028 0 3.308 2.691 5.999 6 5.999 2.086 0 3.924-1.071 5-2.691 1.076 1.62 2.914 2.691 5 2.691 2.97 0 5.436-2.171 5.91-5.008l.118-.001c1.638-.016 2.971-1.361 2.971-3v-5.019h1c.552 0 1-.447 1-1v-3c.001-.551-.447-.999-.999-.999zm-6-14.999c.334 0 .646-.167.832-.446l1.703-2.554h2.359l-1.8 18h-28.094v-15zm-30 11.999v6h-1.001v-6zm-8.93-11.999h5.929v17.999h-4.806c.422-1.147 1.515-1.972 2.807-1.972.553 0 1-.447 1-1v-4.025c0-.001 0-.002 0-.002v-9c0-.553-.448-1-1-1h-5.132l.37-.555c.186-.279.497-.445.832-.445zm2.93 9.999h-10.132l4.667-7h5.465zm-12 2h12v2.129c-1.946.397-3.474 1.93-3.882 3.871h-13.118v-2h2c1.103 0 2-.896 2-2v-2zm-1 9.001h-4v-1h4zm-3-9.001h1v2h-2v-1c0-.551.448-1 1-1zm1 12c-.737 0-1.375-.405-1.722-1h3.722v1zm11 7.027c-2.206 0-4-1.794-4-3.999 0-2.206 1.794-4 4-4s4 1.794 4 4c0 2.205-1.794 3.999-4 3.999zm16-5.027h-6c-.551 0-.999-.448-.999-.999 0-.552.448-1 .999-1h6c.552 0 1 .448 1 1 0 .55-.449.999-1 .999zm10 5.027c-2.206 0-4-1.794-4-3.999 0-2.206 1.794-4 4-4s4 1.794 4 4c0 2.205-1.794 3.999-4 3.999zm10 0c-2.206 0-4-1.794-4-3.999 0-2.206 1.794-4 4-4s4 1.794 4 4c0 2.205-1.794 3.999-4 3.999zm7-6.009c0 .547-.444.995-.99 1.001l-.102.001c-.482-2.829-2.944-4.992-5.908-4.992-2.086 0-3.925 1.071-5 2.691-1.075-1.62-2.914-2.691-5-2.691-2.204 0-4.128 1.198-5.172 2.973h-2.013c-.414-1.161-1.514-2-2.816-2h-6c-1.302 0-2.401.839-2.815 2h-2.013c-1.043-1.775-2.968-2.973-5.171-2.973-1.204 0-2.324.36-3.265.973h-3.735v-2.001h15 3 .001 32v5.018zm2-7.018h-33v-20.999h1v18.999c0 .553.447 1 1 1h31z" fill="#000000" data-original="#000000" style="" class=""/><path d="m32 18.972h2v13h-2z" fill="#000000" data-original="#000000" style="" class=""/><path d="m36 18.972h2v13h-2z" fill="#000000" data-original="#000000" style="" class=""/><path d="m40 18.972h2v13h-2z" fill="#000000" data-original="#000000" style="" class=""/><path d="m44 18.972h2v13h-2z" fill="#000000" data-original="#000000" style="" class=""/><path d="m48 18.972h2v13h-2z" fill="#000000" data-original="#000000" style="" class=""/><path d="m52 18.972h2v13h-2z" fill="#000000" data-original="#000000" style="" class=""/><path d="m56 18.972h2v13h-2z" fill="#000000" data-original="#000000" style="" class=""/></g></g></g></svg>
