<svg height="512" viewBox="0 0 64 64" width="512" xmlns="http://www.w3.org/2000/svg"><g id="Blue"><path d="m16 41h18v4h-18z" fill="#7cb8eb"/><path d="m9 24-2 6-4 1v7a4 4 0 0 0 4 4h9v-18z" fill="#cdeef6"/><path d="m58 41h-38v-4h37z" fill="#cdeef6"/><path d="m25 24h32v9h-29z" fill="#7cb8eb"/><path d="m25 37-2-6h-3v6z" fill="#7cb8eb"/><path d="m16 33h4v8h-4z" fill="#7cb8eb"/><g fill="#cdeef6"><path d="m38 33h-4l-3-9h4z"/><path d="m49 33h-4l-3-9h4z"/><path d="m57 20v13h-32v4h32l1 4h3v-21z"/><path d="m13 35h3a0 0 0 0 1 0 0v7a0 0 0 0 1 0 0h-9a0 0 0 0 1 0 0v-1a6 6 0 0 1 6-6z"/></g><path d="m9 24-2 6h5v-6z" fill="#fff"/><circle cx="13" cy="44" fill="#7cb8eb" r="5"/><circle cx="38" cy="44" fill="#7cb8eb" r="5"/><circle cx="48" cy="44" fill="#7cb8eb" r="5"/><path d="m12 43h2v2h-2z" fill="#4f83d1"/><path d="m37 43h2v2h-2z" fill="#4f83d1"/><path d="m47 43h2v2h-2z" fill="#4f83d1"/><path d="m24 20h-7l-2 4h6l4 13h4l-1-4-3-9z" fill="#cdeef6"/><path d="m12 43h2v2h-2z" fill="#4f83d1"/><path d="m37 43h2v2h-2z" fill="#4f83d1"/><path d="m47 43h2v2h-2z" fill="#4f83d1"/><path d="m61 19h-4a1 1 0 0 0 -1 1v3h-30.22l-.81-3.242a1 1 0 0 0 -.97-.758h-7a1 1 0 0 0 -.895.553l-1.723 3.447h-5.382a1 1 0 0 0 -.948.684l-1.827 5.479-3.467.867a1 1 0 0 0 -.758.97v7a5.006 5.006 0 0 0 5 5h.09a5.993 5.993 0 0 0 11.56 3h13.7a5.991 5.991 0 0 0 10.65 1.31 5.993 5.993 0 0 0 10.65-5.31h7.35a1 1 0 0 0 1-1v-21a1 1 0 0 0 -1-1zm-5 6v7h-6.28l-2.333-7zm-10.721 0 2.333 7h-1.891l-2.333-7zm-4 0 2.333 7h-4.892l-2.333-7zm-7 0 2.333 7h-1.891l-2.333-7zm-4 0 2.333 7h-3.891l-2.333-7zm-12.661-4h5.6l4.5 15h-1.98l-3.782-12.294a1 1 0 0 0 -.956-.706h-4.382zm3.382 11h1.279l1.333 4h-2.612zm-1-2a1 1 0 0 0 -1 1v1h-2v-7h3.262l1.538 5zm-10.279-5h1.279v4h-2.612zm-3.712 15.819a3 3 0 0 1 -2.009-2.819v-6.219l3.121-.781h4.879a1 1 0 0 0 1-1v-5h2v9h-2a7 7 0 0 0 -6.991 6.819zm2.028-.186a4.991 4.991 0 0 1 4.963-4.633h2v2.35a5.968 5.968 0 0 0 -6.963 2.283zm4.963 7.367a4 4 0 1 1 4-4 4 4 0 0 1 -4 4zm4.46-8a6.239 6.239 0 0 0 -.46-.46v-5.54h2v6zm14.54 4h-13a5.976 5.976 0 0 0 -.35-2h13.7a5.976 5.976 0 0 0 -.35 2zm6 4a4 4 0 1 1 4-4 4 4 0 0 1 -4 4zm10 0a4 4 0 1 1 4-4 4 4 0 0 1 -4 4zm4.46-8a5.973 5.973 0 0 0 -8.92 0h-1.08a5.973 5.973 0 0 0 -8.92 0h-12.54v-2h35.219l.5 2zm7.54 0h-1.219l-.811-3.242a1 1 0 0 0 -.97-.758h-27.22l-.5-2h27.72a1 1 0 0 0 1-1v-12h2z" fill="#4f83d1"/></g></svg>